# xmcd CD database file
#
# Track frame offsets:
#	150
#	18597
#	36460
#
# Disc length: 657 seconds
#
# Revision: 0
# Processed by: cddbd v1.5.1PL0 Copyright (c) Steve Scherf et al.
# Submitted via: CDex 1.51
#
DISCID=21028f03
DTITLE=humbert humbert - 天井
DYEAR=2005
DGENRE=Pop
TTITLE0=天井
TTITLE1=旅の終わり
TTITLE2=午睡
EXTD=YEAR: 2005
EXTT0=
EXTT1=
EXTT2=
PLAYORDER=
